<svg width="85" height="84" viewBox="0 0 85 84" fill="none" xmlns="http://www.w3.org/2000/svg">
<rect x="0.614502" y="12.751" width="72" height="72" rx="14.3531" transform="rotate(-10 0.614502 12.751)" fill="white"/>
<g clip-path="url(#clip0_23_20743)">
<path d="M42.0713 23.8452C42.6901 23.5681 43.4396 23.5861 44.0282 23.9306C45.0101 24.4607 45.4032 25.8218 44.8488 26.7923C43.7722 28.6088 42.6905 30.4217 41.6121 32.237C41.3316 32.7162 40.7898 33.0288 40.2341 33.0271C39.6774 33.0405 39.1298 32.7342 38.8444 32.2581C38.5715 31.8238 38.5314 31.2591 38.7292 30.7871C39.4646 28.8992 40.2001 27.0113 40.9322 25.1218C41.1195 24.5646 41.5335 24.088 42.0713 23.8452Z" fill="#EB2D4B"/>
<path d="M44.4502 30.1857C44.94 29.915 45.5843 29.9389 46.0336 30.282C46.3067 30.4776 46.4962 30.7765 46.5794 31.1009C47.2003 33.3488 47.8247 35.5954 48.4441 37.8436C48.6299 38.471 48.5299 39.1815 48.1362 39.7104C47.5881 40.5103 46.4527 40.8176 45.5689 40.43C44.8576 40.1317 44.3355 39.4267 44.2804 38.6544C44.0921 36.2796 43.9023 33.9043 43.7176 31.5289C43.6765 30.9883 43.9782 30.4474 44.4502 30.1857Z" fill="#EB2D4B"/>
<path d="M25.1451 33.6738C25.954 33.2903 26.9957 33.4642 27.6033 34.1317C28.9863 35.7055 30.3662 37.2829 31.7493 38.8574C32.0228 39.1601 32.187 39.5646 32.1739 39.975C32.1776 40.5401 31.85 41.0893 31.355 41.3602C30.7937 41.6845 30.0378 41.6267 29.5404 41.2088C27.9192 39.8822 26.2957 38.5589 24.6752 37.2322C23.9246 36.6181 23.7016 35.4672 24.1633 34.6156C24.3765 34.2055 24.7259 33.8681 25.1451 33.6738Z" fill="#EB2D4B"/>
<path d="M31.4419 33.9775C31.6851 33.8476 31.9649 33.7983 32.2385 33.811C34.6096 33.9185 36.9811 34.0148 39.3517 34.1276C40.4147 34.1862 41.3183 35.1532 41.3096 36.2171C41.3513 37.2126 40.5928 38.156 39.6171 38.3436C39.2937 38.4155 38.9566 38.3969 38.6374 38.3194C36.3504 37.7703 34.063 37.2228 31.7763 36.6751C31.2109 36.5466 30.7657 36.0415 30.6888 35.47C30.5921 34.8796 30.9121 34.253 31.4419 33.9775Z" fill="#EB2D4B"/>
<path d="M50.5509 36.5443C51.0611 36.2462 51.6629 36.375 52.2201 36.3935C54.0217 36.4966 55.8232 36.5982 57.6253 36.6997C58.0696 36.7233 58.5093 36.8769 58.8563 37.1585C59.4078 37.5839 59.7164 38.2967 59.6596 38.9906C59.6243 39.5998 59.2998 40.1796 58.8123 40.5436C58.3177 40.9134 57.6615 41.0536 57.0594 40.9152C55.0177 40.45 52.9734 39.9912 50.9317 39.526C50.3181 39.3814 49.8218 38.8392 49.7389 38.213C49.6189 37.5576 49.9636 36.8567 50.5509 36.5443Z" fill="#EB2D4B"/>
<path d="M33.9882 40.4871C34.892 40.0727 36.0475 40.4027 36.5989 41.2281C37.063 41.8912 37.1045 42.8221 36.6875 43.5179C35.5055 45.4496 34.3227 47.3806 33.1408 49.3123C33.007 49.5315 32.8831 49.7652 32.6838 49.9334C32.1986 50.3691 31.4056 50.4212 30.8798 50.0277C30.3596 49.6749 30.132 48.9619 30.343 48.3708C31.1735 46.1495 32.0041 43.9281 32.8384 41.7075C33.0327 41.1648 33.4585 40.7128 33.9882 40.4871Z" fill="#EB2D4B"/>
<path d="M52.2094 41.3548C52.7368 41.1117 53.4104 41.2092 53.8248 41.6239C54.2679 42.0372 54.3996 42.738 54.1455 43.2869C54.0308 43.5472 53.8291 43.7605 53.5923 43.9145C51.6464 45.1988 49.701 46.4852 47.7572 47.7729C47.2115 48.1479 46.4891 48.2589 45.8608 48.0478C45.1205 47.8081 44.5433 47.136 44.4304 46.3649C44.2566 45.4298 44.805 44.4253 45.6831 44.0631C47.858 43.1585 50.0357 42.2615 52.2094 41.3548Z" fill="#EB2D4B"/>
<path d="M38.4221 46.576C39.243 46.151 40.3313 46.3271 40.9497 47.0224C42.5053 48.8327 44.0526 50.6512 45.605 52.465C45.9245 52.8309 46.0438 53.36 45.9092 53.8276C45.7714 54.3277 45.3425 54.7371 44.832 54.8398C44.4166 54.942 43.9607 54.8395 43.6222 54.581C41.9471 53.2438 40.2686 51.9124 38.5936 50.5759C38.1514 50.2264 37.6511 49.8894 37.4373 49.3427C36.9691 48.3488 37.4279 47.0465 38.4221 46.576Z" fill="#EB2D4B"/>
<path d="M35.0741 50.2932C35.8313 49.9538 36.8035 50.3154 37.1491 51.0693C37.5061 51.7616 37.2658 52.6924 36.6098 53.1166C34.8358 54.2583 33.0621 55.4015 31.2852 56.5393C30.4798 57.0523 29.3377 56.9288 28.6696 56.2429C28.1347 55.7224 27.9124 54.9089 28.1011 54.1872C28.2554 53.5608 28.717 53.0252 29.3083 52.7693C31.2304 51.9449 33.152 51.1176 35.0741 50.2932Z" fill="#EB2D4B"/>
<path d="M47.868 49.0796C48.3421 48.8592 48.9229 48.8943 49.3699 49.1649C49.7467 49.3877 50.0162 49.7736 50.1129 50.1996C50.5845 51.9974 51.0573 53.7934 51.531 55.59C51.6193 55.9224 51.718 56.2544 51.7503 56.5981C51.7979 57.2179 51.5402 57.8477 51.0885 58.2708C50.5682 58.7692 49.7837 58.9662 49.088 58.7856C48.2559 58.5822 47.5949 57.8311 47.5068 56.9776C47.3299 55.0974 47.1625 53.2163 46.9865 51.3367C46.9609 50.9219 46.8567 50.495 46.9848 50.0873C47.1131 49.6432 47.4443 49.2658 47.868 49.0796Z" fill="#EB2D4B"/>
</g>
<defs>
<clipPath id="clip0_23_20743">
<rect width="35.8828" height="35.8828" fill="white" transform="translate(21.5345 27.3994) rotate(-10)"/>
</clipPath>
</defs>
</svg>
